<svg id="visual" viewBox="0 0 900 600" width="900" height="600" xmlns="http://www.w3.org/2000/svg" xmlns:xlink="http://www.w3.org/1999/xlink" version="1.1"><path d="M0 201L12.5 194.5C25 188 50 175 75 179.7C100 184.3 125 206.7 150 208.2C175 209.7 200 190.3 225 181.2C250 172 275 173 300 179.5C325 186 350 198 375 196.8C400 195.7 425 181.3 450 176.7C475 172 500 177 525 186.2C550 195.3 575 208.7 600 214.2C625 219.7 650 217.3 675 205.5C700 193.7 725 172.3 750 163.7C775 155 800 159 825 160C850 161 875 159 887.5 158L900 157L900 0L887.5 0C875 0 850 0 825 0C800 0 775 0 750 0C725 0 700 0 675 0C650 0 625 0 600 0C575 0 550 0 525 0C500 0 475 0 450 0C425 0 400 0 375 0C350 0 325 0 300 0C275 0 250 0 225 0C200 0 175 0 150 0C125 0 100 0 75 0C50 0 25 0 12.5 0L0 0Z" fill="#00ff8b" stroke-linecap="round" stroke-linejoin="miter"></path></svg>